<svg aria-roledescription="er" role="graphics-document document" viewBox="0 0 409.0859375 542.5" style="max-width: 409.086px; background-color: white;" xmlns:xlink="http://www.w3.org/1999/xlink" xmlns="http://www.w3.org/2000/svg" width="100%" id="my-svg"><style>#my-svg{font-family:"trebuchet ms",verdana,arial,sans-serif;font-size:16px;fill:#000000;}#my-svg .error-icon{fill:#552222;}#my-svg .error-text{fill:#552222;stroke:#552222;}#my-svg .edge-thickness-normal{stroke-width:2px;}#my-svg .edge-thickness-thick{stroke-width:3.5px;}#my-svg .edge-pattern-solid{stroke-dasharray:0;}#my-svg .edge-pattern-dashed{stroke-dasharray:3;}#my-svg .edge-pattern-dotted{stroke-dasharray:2;}#my-svg .marker{fill:#666;stroke:#666;}#my-svg .marker.cross{stroke:#666;}#my-svg svg{font-family:"trebuchet ms",verdana,arial,sans-serif;font-size:16px;}#my-svg .entityBox{fill:#eee;stroke:#999;}#my-svg .attributeBoxOdd{fill:#ffffff;stroke:#999;}#my-svg .attributeBoxEven{fill:#f2f2f2;stroke:#999;}#my-svg .relationshipLabelBox{fill:hsl(-160, 0%, 93.3333333333%);opacity:0.7;background-color:hsl(-160, 0%, 93.3333333333%);}#my-svg .relationshipLabelBox rect{opacity:0.5;}#my-svg .relationshipLine{stroke:#666;}#my-svg .entityTitleText{text-anchor:middle;font-size:18px;fill:#000000;}#my-svg #MD_PARENT_START{fill:#f5f5f5!important;stroke:#666!important;stroke-width:1;}#my-svg #MD_PARENT_END{fill:#f5f5f5!important;stroke:#666!important;stroke-width:1;}#my-svg :root{--mermaid-font-family:"trebuchet ms",verdana,arial,sans-serif;}</style><g/><defs><marker orient="auto" markerHeight="240" markerWidth="190" refY="7" refX="0" id="MD_PARENT_START"><path d="M 18,7 L9,13 L1,7 L9,1 Z"/></marker></defs><defs><marker orient="auto" markerHeight="28" markerWidth="20" refY="7" refX="19" id="MD_PARENT_END"><path d="M 18,7 L9,13 L1,7 L9,1 Z"/></marker></defs><defs><marker orient="auto" markerHeight="18" markerWidth="18" refY="9" refX="0" id="ONLY_ONE_START"><path d="M9,0 L9,18 M15,0 L15,18" fill="none" stroke="gray"/></marker></defs><defs><marker orient="auto" markerHeight="18" markerWidth="18" refY="9" refX="18" id="ONLY_ONE_END"><path d="M3,0 L3,18 M9,0 L9,18" fill="none" stroke="gray"/></marker></defs><defs><marker orient="auto" markerHeight="18" markerWidth="30" refY="9" refX="0" id="ZERO_OR_ONE_START"><circle r="6" cy="9" cx="21" fill="white" stroke="gray"/><path d="M9,0 L9,18" fill="none" stroke="gray"/></marker></defs><defs><marker orient="auto" markerHeight="18" markerWidth="30" refY="9" refX="30" id="ZERO_OR_ONE_END"><circle r="6" cy="9" cx="9" fill="white" stroke="gray"/><path d="M21,0 L21,18" fill="none" stroke="gray"/></marker></defs><defs><marker orient="auto" markerHeight="36" markerWidth="45" refY="18" refX="18" id="ONE_OR_MORE_START"><path d="M0,18 Q 18,0 36,18 Q 18,36 0,18 M42,9 L42,27" fill="none" stroke="gray"/></marker></defs><defs><marker orient="auto" markerHeight="36" markerWidth="45" refY="18" refX="27" id="ONE_OR_MORE_END"><path d="M3,9 L3,27 M9,18 Q27,0 45,18 Q27,36 9,18" fill="none" stroke="gray"/></marker></defs><defs><marker orient="auto" markerHeight="36" markerWidth="57" refY="18" refX="18" id="ZERO_OR_MORE_START"><circle r="6" cy="18" cx="48" fill="white" stroke="gray"/><path d="M0,18 Q18,0 36,18 Q18,36 0,18" fill="none" stroke="gray"/></marker></defs><defs><marker orient="auto" markerHeight="36" markerWidth="57" refY="18" refX="39" id="ZERO_OR_MORE_END"><circle r="6" cy="18" cx="9" fill="white" stroke="gray"/><path d="M21,18 Q39,0 57,18 Q39,36 21,18" fill="none" stroke="gray"/></marker></defs><path style="stroke: gray; fill: none;" marker-start="url(#ZERO_OR_ONE_START)" marker-end="url(#ONLY_ONE_END)" d="M156.431640625,277.0641500180984L144.57454427083334,290.88679168174866C132.71744791666666,304.70943334539896,109.00325520833333,332.35471667269945,97.14615885416667,358.2190250030164C85.2890625,384.0833333333333,85.2890625,408.1666666666667,85.2890625,420.2083333333333L85.2890625,432.25" class="er relationshipLine"/><path style="stroke: gray; fill: none;" marker-start="url(#ZERO_OR_MORE_START)" marker-end="url(#ZERO_OR_MORE_END)" d="M252.560546875,310L252.560546875,318.3333333333333C252.560546875,326.6666666666667,252.560546875,343.3333333333333,257.83674172794116,360C263.1129365808824,376.6666666666667,273.6653262867647,393.3333333333333,278.9415211397059,401.6666666666667L284.2177159926471,410" class="er relationshipLine"/><path style="stroke: gray; fill: none;" marker-start="url(#ZERO_OR_ONE_START)" marker-end="url(#ONLY_ONE_END)" d="M346.30261948529414,410L350.22418811274514,401.6666666666667C354.1457567401961,393.3333333333333,361.98889399509807,376.6666666666667,360.8988607261815,360C359.80882745726495,343.3333333333333,349.78562366452996,326.6666666666667,344.77402176816236,318.3333333333333L339.76241987179486,310" class="er relationshipLine"/><g transform="translate(20,432.25 )" id="entity-studyscale-eaf7a475-fb61-5dd3-b28d-38892d030e8a"><rect height="68" width="130.578125" y="0" x="0" class="er entityBox"/><text style="dominant-baseline: middle; text-anchor: middle; font-size: 12px;" transform="translate(65.2890625,12)" y="0" x="0" id="text-entity-studyscale-eaf7a475-fb61-5dd3-b28d-38892d030e8a" class="er entityLabel">study_scale</text><rect height="22" width="65.2890625" y="24" x="0" class="er attributeBoxOdd"/><text style="dominant-baseline: middle; font-size: 10.2px;" transform="translate(5,35)" y="0" x="0" id="text-entity-studyscale-eaf7a475-fb61-5dd3-b28d-38892d030e8a-attr-1-type" class="er entityLabel">Municipality</text><rect height="22" width="65.2890625" y="24" x="65.2890625" class="er attributeBoxOdd"/><text style="dominant-baseline: middle; font-size: 10.2px;" transform="translate(70.2890625,35)" y="0" x="0" id="text-entity-studyscale-eaf7a475-fb61-5dd3-b28d-38892d030e8a-attr-1-name" class="er entityLabel">Municipality</text><rect height="22" width="65.2890625" y="46" x="0" class="er attributeBoxEven"/><text style="dominant-baseline: middle; font-size: 10.2px;" transform="translate(5,57)" y="0" x="0" id="text-entity-studyscale-eaf7a475-fb61-5dd3-b28d-38892d030e8a-attr-2-type" class="er entityLabel">Building</text><rect height="22" width="65.2890625" y="46" x="65.2890625" class="er attributeBoxEven"/><text style="dominant-baseline: middle; font-size: 10.2px;" transform="translate(70.2890625,57)" y="0" x="0" id="text-entity-studyscale-eaf7a475-fb61-5dd3-b28d-38892d030e8a-attr-2-name" class="er entityLabel">Building</text></g><g transform="translate(156.431640625,20 )" id="entity-study-56b2e34d-56cf-5495-80ab-b1e5c97a84ea"><rect height="290" width="192.2578125" y="0" x="0" class="er entityBox"/><text style="dominant-baseline: middle; text-anchor: middle; font-size: 12px;" transform="translate(96.12890625,12)" y="0" x="0" id="text-entity-study-56b2e34d-56cf-5495-80ab-b1e5c97a84ea" class="er entityLabel">study</text><rect height="22.5" width="62.921875" y="24" x="0" class="er attributeBoxOdd"/><text style="dominant-baseline: middle; font-size: 10.2px;" transform="translate(5,35.25)" y="0" x="0" id="text-entity-study-56b2e34d-56cf-5495-80ab-b1e5c97a84ea-attr-1-type" class="er entityLabel">Int</text><rect height="22.5" width="106.8359375" y="24" x="62.921875" class="er attributeBoxOdd"/><text style="dominant-baseline: middle; font-size: 10.2px;" transform="translate(67.921875,35.25)" y="0" x="0" id="text-entity-study-56b2e34d-56cf-5495-80ab-b1e5c97a84ea-attr-1-name" class="er entityLabel">id</text><rect height="22.5" width="22.5" y="24" x="169.7578125" class="er attributeBoxOdd"/><text style="dominant-baseline: middle; font-size: 10.2px;" transform="translate(174.7578125,35.25)" y="0" x="0" id="text-entity-study-56b2e34d-56cf-5495-80ab-b1e5c97a84ea-attr-1-comment" class="er entityLabel">🗝️</text><rect height="22" width="62.921875" y="46.5" x="0" class="er attributeBoxEven"/><text style="dominant-baseline: middle; font-size: 10.2px;" transform="translate(5,57.5)" y="0" x="0" id="text-entity-study-56b2e34d-56cf-5495-80ab-b1e5c97a84ea-attr-2-type" class="er entityLabel">String</text><rect height="22" width="106.8359375" y="46.5" x="62.921875" class="er attributeBoxEven"/><text style="dominant-baseline: middle; font-size: 10.2px;" transform="translate(67.921875,57.5)" y="0" x="0" id="text-entity-study-56b2e34d-56cf-5495-80ab-b1e5c97a84ea-attr-2-name" class="er entityLabel">name</text><rect height="22" width="22.5" y="46.5" x="169.7578125" class="er attributeBoxEven"/><text style="dominant-baseline: middle; font-size: 10.2px;" transform="translate(174.7578125,57.5)" y="0" x="0" id="text-entity-study-56b2e34d-56cf-5495-80ab-b1e5c97a84ea-attr-2-comment" class="er entityLabel"/><rect height="22" width="62.921875" y="68.5" x="0" class="er attributeBoxOdd"/><text style="dominant-baseline: middle; font-size: 10.2px;" transform="translate(5,79.5)" y="0" x="0" id="text-entity-study-56b2e34d-56cf-5495-80ab-b1e5c97a84ea-attr-3-type" class="er entityLabel">String</text><rect height="22" width="106.8359375" y="68.5" x="62.921875" class="er attributeBoxOdd"/><text style="dominant-baseline: middle; font-size: 10.2px;" transform="translate(67.921875,79.5)" y="0" x="0" id="text-entity-study-56b2e34d-56cf-5495-80ab-b1e5c97a84ea-attr-3-name" class="er entityLabel">slug</text><rect height="22" width="22.5" y="68.5" x="169.7578125" class="er attributeBoxOdd"/><text style="dominant-baseline: middle; font-size: 10.2px;" transform="translate(174.7578125,79.5)" y="0" x="0" id="text-entity-study-56b2e34d-56cf-5495-80ab-b1e5c97a84ea-attr-3-comment" class="er entityLabel"/><rect height="22.5" width="62.921875" y="90.5" x="0" class="er attributeBoxEven"/><text style="dominant-baseline: middle; font-size: 10.2px;" transform="translate(5,101.75)" y="0" x="0" id="text-entity-study-56b2e34d-56cf-5495-80ab-b1e5c97a84ea-attr-4-type" class="er entityLabel">String</text><rect height="22.5" width="106.8359375" y="90.5" x="62.921875" class="er attributeBoxEven"/><text style="dominant-baseline: middle; font-size: 10.2px;" transform="translate(67.921875,101.75)" y="0" x="0" id="text-entity-study-56b2e34d-56cf-5495-80ab-b1e5c97a84ea-attr-4-name" class="er entityLabel">description</text><rect height="22.5" width="22.5" y="90.5" x="169.7578125" class="er attributeBoxEven"/><text style="dominant-baseline: middle; font-size: 10.2px;" transform="translate(174.7578125,101.75)" y="0" x="0" id="text-entity-study-56b2e34d-56cf-5495-80ab-b1e5c97a84ea-attr-4-comment" class="er entityLabel">❓</text><rect height="22.5" width="62.921875" y="113" x="0" class="er attributeBoxOdd"/><text style="dominant-baseline: middle; font-size: 10.2px;" transform="translate(5,124.25)" y="0" x="0" id="text-entity-study-56b2e34d-56cf-5495-80ab-b1e5c97a84ea-attr-5-type" class="er entityLabel">String</text><rect height="22.5" width="106.8359375" y="113" x="62.921875" class="er attributeBoxOdd"/><text style="dominant-baseline: middle; font-size: 10.2px;" transform="translate(67.921875,124.25)" y="0" x="0" id="text-entity-study-56b2e34d-56cf-5495-80ab-b1e5c97a84ea-attr-5-name" class="er entityLabel">details</text><rect height="22.5" width="22.5" y="113" x="169.7578125" class="er attributeBoxOdd"/><text style="dominant-baseline: middle; font-size: 10.2px;" transform="translate(174.7578125,124.25)" y="0" x="0" id="text-entity-study-56b2e34d-56cf-5495-80ab-b1e5c97a84ea-attr-5-comment" class="er entityLabel">❓</text><rect height="22.5" width="62.921875" y="135.5" x="0" class="er attributeBoxEven"/><text style="dominant-baseline: middle; font-size: 10.2px;" transform="translate(5,146.75)" y="0" x="0" id="text-entity-study-56b2e34d-56cf-5495-80ab-b1e5c97a84ea-attr-6-type" class="er entityLabel">String</text><rect height="22.5" width="106.8359375" y="135.5" x="62.921875" class="er attributeBoxEven"/><text style="dominant-baseline: middle; font-size: 10.2px;" transform="translate(67.921875,146.75)" y="0" x="0" id="text-entity-study-56b2e34d-56cf-5495-80ab-b1e5c97a84ea-attr-6-name" class="er entityLabel">image_src</text><rect height="22.5" width="22.5" y="135.5" x="169.7578125" class="er attributeBoxEven"/><text style="dominant-baseline: middle; font-size: 10.2px;" transform="translate(174.7578125,146.75)" y="0" x="0" id="text-entity-study-56b2e34d-56cf-5495-80ab-b1e5c97a84ea-attr-6-comment" class="er entityLabel">❓</text><rect height="22" width="62.921875" y="158" x="0" class="er attributeBoxOdd"/><text style="dominant-baseline: middle; font-size: 10.2px;" transform="translate(5,169)" y="0" x="0" id="text-entity-study-56b2e34d-56cf-5495-80ab-b1e5c97a84ea-attr-7-type" class="er entityLabel">Float</text><rect height="22" width="106.8359375" y="158" x="62.921875" class="er attributeBoxOdd"/><text style="dominant-baseline: middle; font-size: 10.2px;" transform="translate(67.921875,169)" y="0" x="0" id="text-entity-study-56b2e34d-56cf-5495-80ab-b1e5c97a84ea-attr-7-name" class="er entityLabel">centroid_coordinates</text><rect height="22" width="22.5" y="158" x="169.7578125" class="er attributeBoxOdd"/><text style="dominant-baseline: middle; font-size: 10.2px;" transform="translate(174.7578125,169)" y="0" x="0" id="text-entity-study-56b2e34d-56cf-5495-80ab-b1e5c97a84ea-attr-7-comment" class="er entityLabel"/><rect height="22" width="62.921875" y="180" x="0" class="er attributeBoxEven"/><text style="dominant-baseline: middle; font-size: 10.2px;" transform="translate(5,191)" y="0" x="0" id="text-entity-study-56b2e34d-56cf-5495-80ab-b1e5c97a84ea-attr-8-type" class="er entityLabel">Int</text><rect height="22" width="106.8359375" y="180" x="62.921875" class="er attributeBoxEven"/><text style="dominant-baseline: middle; font-size: 10.2px;" transform="translate(67.921875,191)" y="0" x="0" id="text-entity-study-56b2e34d-56cf-5495-80ab-b1e5c97a84ea-attr-8-name" class="er entityLabel">zoom_level_start</text><rect height="22" width="22.5" y="180" x="169.7578125" class="er attributeBoxEven"/><text style="dominant-baseline: middle; font-size: 10.2px;" transform="translate(174.7578125,191)" y="0" x="0" id="text-entity-study-56b2e34d-56cf-5495-80ab-b1e5c97a84ea-attr-8-comment" class="er entityLabel"/><rect height="22" width="62.921875" y="202" x="0" class="er attributeBoxOdd"/><text style="dominant-baseline: middle; font-size: 10.2px;" transform="translate(5,213)" y="0" x="0" id="text-entity-study-56b2e34d-56cf-5495-80ab-b1e5c97a84ea-attr-9-type" class="er entityLabel">Float</text><rect height="22" width="106.8359375" y="202" x="62.921875" class="er attributeBoxOdd"/><text style="dominant-baseline: middle; font-size: 10.2px;" transform="translate(67.921875,213)" y="0" x="0" id="text-entity-study-56b2e34d-56cf-5495-80ab-b1e5c97a84ea-attr-9-name" class="er entityLabel">bbox</text><rect height="22" width="22.5" y="202" x="169.7578125" class="er attributeBoxOdd"/><text style="dominant-baseline: middle; font-size: 10.2px;" transform="translate(174.7578125,213)" y="0" x="0" id="text-entity-study-56b2e34d-56cf-5495-80ab-b1e5c97a84ea-attr-9-comment" class="er entityLabel"/><rect height="22" width="62.921875" y="224" x="0" class="er attributeBoxEven"/><text style="dominant-baseline: middle; font-size: 10.2px;" transform="translate(5,235)" y="0" x="0" id="text-entity-study-56b2e34d-56cf-5495-80ab-b1e5c97a84ea-attr-10-type" class="er entityLabel">DateTime</text><rect height="22" width="106.8359375" y="224" x="62.921875" class="er attributeBoxEven"/><text style="dominant-baseline: middle; font-size: 10.2px;" transform="translate(67.921875,235)" y="0" x="0" id="text-entity-study-56b2e34d-56cf-5495-80ab-b1e5c97a84ea-attr-10-name" class="er entityLabel">created_at</text><rect height="22" width="22.5" y="224" x="169.7578125" class="er attributeBoxEven"/><text style="dominant-baseline: middle; font-size: 10.2px;" transform="translate(174.7578125,235)" y="0" x="0" id="text-entity-study-56b2e34d-56cf-5495-80ab-b1e5c97a84ea-attr-10-comment" class="er entityLabel"/><rect height="22" width="62.921875" y="246" x="0" class="er attributeBoxOdd"/><text style="dominant-baseline: middle; font-size: 10.2px;" transform="translate(5,257)" y="0" x="0" id="text-entity-study-56b2e34d-56cf-5495-80ab-b1e5c97a84ea-attr-11-type" class="er entityLabel">DateTime</text><rect height="22" width="106.8359375" y="246" x="62.921875" class="er attributeBoxOdd"/><text style="dominant-baseline: middle; font-size: 10.2px;" transform="translate(67.921875,257)" y="0" x="0" id="text-entity-study-56b2e34d-56cf-5495-80ab-b1e5c97a84ea-attr-11-name" class="er entityLabel">updated_at</text><rect height="22" width="22.5" y="246" x="169.7578125" class="er attributeBoxOdd"/><text style="dominant-baseline: middle; font-size: 10.2px;" transform="translate(174.7578125,257)" y="0" x="0" id="text-entity-study-56b2e34d-56cf-5495-80ab-b1e5c97a84ea-attr-11-comment" class="er entityLabel"/><rect height="22" width="62.921875" y="268" x="0" class="er attributeBoxEven"/><text style="dominant-baseline: middle; font-size: 10.2px;" transform="translate(5,279)" y="0" x="0" id="text-entity-study-56b2e34d-56cf-5495-80ab-b1e5c97a84ea-attr-12-type" class="er entityLabel">study_scale</text><rect height="22" width="106.8359375" y="268" x="62.921875" class="er attributeBoxEven"/><text style="dominant-baseline: middle; font-size: 10.2px;" transform="translate(67.921875,279)" y="0" x="0" id="text-entity-study-56b2e34d-56cf-5495-80ab-b1e5c97a84ea-attr-12-name" class="er entityLabel">scale</text><rect height="22" width="22.5" y="268" x="169.7578125" class="er attributeBoxEven"/><text style="dominant-baseline: middle; font-size: 10.2px;" transform="translate(174.7578125,279)" y="0" x="0" id="text-entity-study-56b2e34d-56cf-5495-80ab-b1e5c97a84ea-attr-12-comment" class="er entityLabel"/></g><g transform="translate(250.578125,410 )" id="entity-shape-699ce099-27a9-5612-8cca-ed58527330bd"><rect height="112.5" width="138.5078125" y="0" x="0" class="er entityBox"/><text style="dominant-baseline: middle; text-anchor: middle; font-size: 12px;" transform="translate(69.25390625,12)" y="0" x="0" id="text-entity-shape-699ce099-27a9-5612-8cca-ed58527330bd" class="er entityLabel">shape</text><rect height="22.5" width="53.6640625" y="24" x="0" class="er attributeBoxOdd"/><text style="dominant-baseline: middle; font-size: 10.2px;" transform="translate(5,35.25)" y="0" x="0" id="text-entity-shape-699ce099-27a9-5612-8cca-ed58527330bd-attr-1-type" class="er entityLabel">String</text><rect height="22.5" width="62.34375" y="24" x="53.6640625" class="er attributeBoxOdd"/><text style="dominant-baseline: middle; font-size: 10.2px;" transform="translate(58.6640625,35.25)" y="0" x="0" id="text-entity-shape-699ce099-27a9-5612-8cca-ed58527330bd-attr-1-name" class="er entityLabel">name</text><rect height="22.5" width="22.5" y="24" x="116.0078125" class="er attributeBoxOdd"/><text style="dominant-baseline: middle; font-size: 10.2px;" transform="translate(121.0078125,35.25)" y="0" x="0" id="text-entity-shape-699ce099-27a9-5612-8cca-ed58527330bd-attr-1-comment" class="er entityLabel">🗝️</text><rect height="22" width="53.6640625" y="46.5" x="0" class="er attributeBoxEven"/><text style="dominant-baseline: middle; font-size: 10.2px;" transform="translate(5,57.5)" y="0" x="0" id="text-entity-shape-699ce099-27a9-5612-8cca-ed58527330bd-attr-2-type" class="er entityLabel">Int</text><rect height="22" width="62.34375" y="46.5" x="53.6640625" class="er attributeBoxEven"/><text style="dominant-baseline: middle; font-size: 10.2px;" transform="translate(58.6640625,57.5)" y="0" x="0" id="text-entity-shape-699ce099-27a9-5612-8cca-ed58527330bd-attr-2-name" class="er entityLabel">study_id</text><rect height="22" width="22.5" y="46.5" x="116.0078125" class="er attributeBoxEven"/><text style="dominant-baseline: middle; font-size: 10.2px;" transform="translate(121.0078125,57.5)" y="0" x="0" id="text-entity-shape-699ce099-27a9-5612-8cca-ed58527330bd-attr-2-comment" class="er entityLabel"/><rect height="22" width="53.6640625" y="68.5" x="0" class="er attributeBoxOdd"/><text style="dominant-baseline: middle; font-size: 10.2px;" transform="translate(5,79.5)" y="0" x="0" id="text-entity-shape-699ce099-27a9-5612-8cca-ed58527330bd-attr-3-type" class="er entityLabel">DateTime</text><rect height="22" width="62.34375" y="68.5" x="53.6640625" class="er attributeBoxOdd"/><text style="dominant-baseline: middle; font-size: 10.2px;" transform="translate(58.6640625,79.5)" y="0" x="0" id="text-entity-shape-699ce099-27a9-5612-8cca-ed58527330bd-attr-3-name" class="er entityLabel">created_at</text><rect height="22" width="22.5" y="68.5" x="116.0078125" class="er attributeBoxOdd"/><text style="dominant-baseline: middle; font-size: 10.2px;" transform="translate(121.0078125,79.5)" y="0" x="0" id="text-entity-shape-699ce099-27a9-5612-8cca-ed58527330bd-attr-3-comment" class="er entityLabel"/><rect height="22" width="53.6640625" y="90.5" x="0" class="er attributeBoxEven"/><text style="dominant-baseline: middle; font-size: 10.2px;" transform="translate(5,101.5)" y="0" x="0" id="text-entity-shape-699ce099-27a9-5612-8cca-ed58527330bd-attr-4-type" class="er entityLabel">DateTime</text><rect height="22" width="62.34375" y="90.5" x="53.6640625" class="er attributeBoxEven"/><text style="dominant-baseline: middle; font-size: 10.2px;" transform="translate(58.6640625,101.5)" y="0" x="0" id="text-entity-shape-699ce099-27a9-5612-8cca-ed58527330bd-attr-4-name" class="er entityLabel">updated_at</text><rect height="22" width="22.5" y="90.5" x="116.0078125" class="er attributeBoxEven"/><text style="dominant-baseline: middle; font-size: 10.2px;" transform="translate(121.0078125,101.5)" y="0" x="0" id="text-entity-shape-699ce099-27a9-5612-8cca-ed58527330bd-attr-4-comment" class="er entityLabel"/></g><rect height="14" width="61.21875" y="340.04901123046875" x="72.28789520263672" class="er relationshipLabelBox"/><text style="text-anchor: middle; dominant-baseline: middle; font-size: 12px;" y="347.04901123046875" x="102.89727020263672" id="rel1" class="er relationshipLabel">enum:scale</text><rect height="14" width="59.765625" y="355.9359436035156" x="228.93661499023438" class="er relationshipLabelBox"/><text style="text-anchor: middle; dominant-baseline: middle; font-size: 12px;" y="362.9359436035156" x="258.8194274902344" id="rel2" class="er relationshipLabel">geometries</text><rect height="14" width="28.78125" y="351.9366760253906" x="346.4263916015625" class="er relationshipLabelBox"/><text style="text-anchor: middle; dominant-baseline: middle; font-size: 12px;" y="358.9366760253906" x="360.8170166015625" id="rel3" class="er relationshipLabel">study</text></svg>